<svg width="25" height="24" viewBox="0 0 25 24" fill="none" xmlns="http://www.w3.org/2000/svg">
<path d="M8.96421 17C8.84688 17 8.75088 16.9627 8.67621 16.888C8.60154 16.8134 8.56421 16.7174 8.56421 16.6V6.20005C8.56421 6.08272 8.60154 5.98672 8.67621 5.91205C8.75088 5.83738 8.84688 5.80005 8.96421 5.80005H13.2042C14.5375 5.80005 15.5882 6.10938 16.3562 6.72805C17.1242 7.33605 17.5082 8.21605 17.5082 9.36805C17.5082 10.1467 17.3215 10.7974 16.9482 11.32C16.5749 11.8427 16.0735 12.232 15.4442 12.488L17.7002 16.488C17.7322 16.552 17.7482 16.6107 17.7482 16.664C17.7482 16.7494 17.7162 16.8294 17.6522 16.904C17.5882 16.9681 17.5082 17 17.4122 17H15.6362C15.4442 17 15.3002 16.952 15.2042 16.856C15.1082 16.7494 15.0389 16.6534 14.9962 16.568L13.0442 12.904H11.1082V16.6C11.1082 16.7174 11.0709 16.8134 10.9962 16.888C10.9215 16.9627 10.8255 17 10.7082 17H8.96421ZM11.1082 10.872H13.1562C13.7429 10.872 14.1749 10.7387 14.4522 10.472C14.7402 10.2054 14.8842 9.83205 14.8842 9.35205C14.8842 8.87205 14.7455 8.49338 14.4682 8.21605C14.1909 7.93872 13.7535 7.80005 13.1562 7.80005H11.1082V10.872Z" fill="white"/>
</svg>
