<svg width="72" height="72" viewBox="0 0 72 72" fill="none" xmlns="http://www.w3.org/2000/svg">
<circle cx="35.8267" cy="35.8267" r="25.3333" transform="rotate(-45 35.8267 35.8267)" fill="white"/>
<circle cx="31.1126" cy="52.7974" r="2" transform="rotate(-45 31.1126 52.7974)" fill="#888E8B"/>
<circle cx="37.7122" cy="53.7403" r="2" transform="rotate(-45 37.7122 53.7403)" fill="#888E8B"/>
<circle cx="44.3118" cy="54.6827" r="2" transform="rotate(-45 44.3118 54.6827)" fill="#888E8B"/>
<circle cx="36.7698" cy="47.1402" r="2" transform="rotate(-45 36.7698 47.1402)" fill="#888E8B"/>
<circle cx="43.3694" cy="48.0831" r="2" transform="rotate(-45 43.3694 48.0831)" fill="#888E8B"/>
<circle cx="49.9691" cy="49.0259" r="2" transform="rotate(-45 49.9691 49.0259)" fill="#888E8B"/>
<circle cx="42.4261" cy="41.4835" r="2" transform="rotate(-45 42.4261 41.4835)" fill="#888E8B"/>
<circle cx="49.0257" cy="42.4263" r="2" transform="rotate(-45 49.0257 42.4263)" fill="#888E8B"/>
<circle cx="55.6253" cy="43.3692" r="2" transform="rotate(-45 55.6253 43.3692)" fill="#888E8B"/>
<circle cx="48.0833" cy="35.8267" r="2" transform="rotate(-45 48.0833 35.8267)" fill="#888E8B"/>
<circle cx="54.6829" cy="36.7691" r="2" transform="rotate(-45 54.6829 36.7691)" fill="#888E8B"/>
<circle cx="53.7396" cy="30.17" r="2" transform="rotate(-45 53.7396 30.17)" fill="#888E8B"/>
</svg>
