<svg width="56" height="56" viewBox="0 0 56 56" fill="none" xmlns="http://www.w3.org/2000/svg">
<g filter="url(#filter0_bd_2734_9502)">
<rect width="56" height="56" rx="28" transform="matrix(-1 0 0 1 56 0)" fill="black" fill-opacity="0.6" shape-rendering="crispEdges"/>
<rect x="-0.5" y="0.5" width="55" height="55" rx="27.5" transform="matrix(-1 0 0 1 55 0)" stroke="white" stroke-opacity="0.2" shape-rendering="crispEdges"/>
<path d="M23.0001 27H30.5901L27.2901 23.71C27.1018 23.5217 26.996 23.2663 26.996 23C26.996 22.7337 27.1018 22.4783 27.2901 22.29C27.4784 22.1017 27.7338 21.9959 28.0001 21.9959C28.2664 21.9959 28.5218 22.1017 28.7101 22.29L33.7101 27.29C33.8011 27.3851 33.8725 27.4973 33.9201 27.62C34.0201 27.8635 34.0201 28.1365 33.9201 28.38C33.8725 28.5028 33.8011 28.6149 33.7101 28.71L28.7101 33.71C28.6171 33.8037 28.5065 33.8781 28.3847 33.9289C28.2628 33.9797 28.1321 34.0058 28.0001 34.0058C27.8681 34.0058 27.7374 33.9797 27.6155 33.9289C27.4937 33.8781 27.3831 33.8037 27.2901 33.71C27.1964 33.617 27.122 33.5064 27.0712 33.3846C27.0204 33.2627 26.9943 33.132 26.9943 33C26.9943 32.868 27.0204 32.7373 27.0712 32.6154C27.122 32.4936 27.1964 32.383 27.2901 32.29L30.5901 29H23.0001C22.7349 29 22.4805 28.8946 22.293 28.7071C22.1055 28.5196 22.0001 28.2652 22.0001 28C22.0001 27.7348 22.1055 27.4804 22.293 27.2929C22.4805 27.1054 22.7349 27 23.0001 27Z" fill="white"/>
</g>
<defs>
<filter id="filter0_bd_2734_9502" x="-24" y="-24" width="104" height="104" filterUnits="userSpaceOnUse" color-interpolation-filters="sRGB">
<feFlood flood-opacity="0" result="BackgroundImageFix"/>
<feGaussianBlur in="BackgroundImageFix" stdDeviation="12"/>
<feComposite in2="SourceAlpha" operator="in" result="effect1_backgroundBlur_2734_9502"/>
<feColorMatrix in="SourceAlpha" type="matrix" values="0 0 0 0 0 0 0 0 0 0 0 0 0 0 0 0 0 0 127 0" result="hardAlpha"/>
<feOffset/>
<feComposite in2="hardAlpha" operator="out"/>
<feColorMatrix type="matrix" values="0 0 0 0 1 0 0 0 0 1 0 0 0 0 1 0 0 0 0.1 0"/>
<feBlend mode="normal" in2="effect1_backgroundBlur_2734_9502" result="effect2_dropShadow_2734_9502"/>
<feBlend mode="normal" in="SourceGraphic" in2="effect2_dropShadow_2734_9502" result="shape"/>
</filter>
</defs>
</svg>
