<svg width="56" height="56" viewBox="0 0 56 56" fill="none" xmlns="http://www.w3.org/2000/svg">
<g filter="url(#filter0_bd_2734_9499)">
<rect width="56" height="56" rx="28" fill="black" fill-opacity="0.6" shape-rendering="crispEdges"/>
<rect x="0.5" y="0.5" width="55" height="55" rx="27.5" stroke="white" stroke-opacity="0.2" shape-rendering="crispEdges"/>
<path d="M32.9999 27H25.4099L28.7099 23.71C28.8982 23.5217 29.004 23.2663 29.004 23C29.004 22.7337 28.8982 22.4783 28.7099 22.29C28.5216 22.1017 28.2662 21.9959 27.9999 21.9959C27.7336 21.9959 27.4782 22.1017 27.2899 22.29L22.2899 27.29C22.1989 27.3851 22.1275 27.4973 22.0799 27.62C21.9799 27.8635 21.9799 28.1365 22.0799 28.38C22.1275 28.5028 22.1989 28.6149 22.2899 28.71L27.2899 33.71C27.3829 33.8037 27.4935 33.8781 27.6153 33.9289C27.7372 33.9797 27.8679 34.0058 27.9999 34.0058C28.1319 34.0058 28.2626 33.9797 28.3845 33.9289C28.5063 33.8781 28.6169 33.8037 28.7099 33.71C28.8036 33.617 28.878 33.5064 28.9288 33.3846C28.9796 33.2627 29.0057 33.132 29.0057 33C29.0057 32.868 28.9796 32.7373 28.9288 32.6154C28.878 32.4936 28.8036 32.383 28.7099 32.29L25.4099 29H32.9999C33.2651 29 33.5195 28.8946 33.707 28.7071C33.8945 28.5196 33.9999 28.2652 33.9999 28C33.9999 27.7348 33.8945 27.4804 33.707 27.2929C33.5195 27.1054 33.2651 27 32.9999 27Z" fill="white"/>
</g>
<defs>
<filter id="filter0_bd_2734_9499" x="-24" y="-24" width="104" height="104" filterUnits="userSpaceOnUse" color-interpolation-filters="sRGB">
<feFlood flood-opacity="0" result="BackgroundImageFix"/>
<feGaussianBlur in="BackgroundImageFix" stdDeviation="12"/>
<feComposite in2="SourceAlpha" operator="in" result="effect1_backgroundBlur_2734_9499"/>
<feColorMatrix in="SourceAlpha" type="matrix" values="0 0 0 0 0 0 0 0 0 0 0 0 0 0 0 0 0 0 127 0" result="hardAlpha"/>
<feOffset/>
<feComposite in2="hardAlpha" operator="out"/>
<feColorMatrix type="matrix" values="0 0 0 0 1 0 0 0 0 1 0 0 0 0 1 0 0 0 0.1 0"/>
<feBlend mode="normal" in2="effect1_backgroundBlur_2734_9499" result="effect2_dropShadow_2734_9499"/>
<feBlend mode="normal" in="SourceGraphic" in2="effect2_dropShadow_2734_9499" result="shape"/>
</filter>
</defs>
</svg>
