<svg width="45" height="44" viewBox="0 0 45 44" fill="none" xmlns="http://www.w3.org/2000/svg">
<path opacity="0.2" d="M40.4582 18.5165C40.6415 17.5999 39.9082 16.4999 38.9915 16.4999L28.5415 15.0332L23.7748 5.49987C23.5915 5.1332 23.4082 4.94987 23.0415 4.76653C22.1248 4.21653 21.0248 4.5832 20.4748 5.49987L15.8915 15.0332L5.4415 16.4999C4.8915 16.4999 4.52484 16.6832 4.3415 17.0499C3.60817 17.7832 3.60817 18.8832 4.3415 19.6165L11.8582 26.9499L10.0248 37.3999C10.0248 37.7665 10.0248 38.1332 10.2082 38.4999C10.7582 39.4165 11.8582 39.7832 12.7748 39.2332L22.1248 34.2832L31.4748 39.2332C31.6582 39.4165 32.0248 39.4165 32.3915 39.4165C32.5748 39.4165 32.5748 39.4165 32.7582 39.4165C33.6748 39.2332 34.4082 38.3165 34.2248 37.2165L32.3915 26.7665L39.9082 19.4332C40.2748 19.2499 40.4582 18.8832 40.4582 18.5165Z" fill="white"/>
</svg>
