<svg width="45" height="44" viewBox="0 0 45 44" fill="none" xmlns="http://www.w3.org/2000/svg">
<path d="M40.4582 18.5165C40.6415 17.5998 39.9082 16.4998 38.9915 16.4998L28.5415 15.0331L23.7748 5.49981C23.5915 5.13314 23.4082 4.94981 23.0415 4.76647C22.1248 4.21647 21.0248 4.58314 20.4748 5.49981L15.8915 15.0331L5.4415 16.4998C4.8915 16.4998 4.52484 16.6831 4.3415 17.0498C3.60817 17.7831 3.60817 18.8831 4.3415 19.6165L11.8582 26.9498L10.0248 37.3998C10.0248 37.7665 10.0248 38.1331 10.2082 38.4998C10.7582 39.4165 11.8582 39.7831 12.7748 39.2331L22.1248 34.2831L31.4748 39.2331C31.6582 39.4165 32.0248 39.4165 32.3915 39.4165C32.5748 39.4165 32.5748 39.4165 32.7582 39.4165C33.6748 39.2331 34.4082 38.3165 34.2248 37.2165L32.3915 26.7665L39.9082 19.4331C40.2748 19.2498 40.4582 18.8831 40.4582 18.5165Z" fill="#FFB91A"/>
</svg>
