<svg width="24" height="24" viewBox="0 0 24 24" fill="none" xmlns="http://www.w3.org/2000/svg">
<g filter="url(#filter0_bd_3269_7289)">
<rect width="24" height="24" rx="12" fill="black" fill-opacity="0.6" shape-rendering="crispEdges"/>
<path d="M11.6895 16.1949C11.8812 16.0739 12.1206 16.0739 12.3123 16.1949L15.024 17.9059C15.4832 18.1957 16.0476 17.7617 15.9251 17.213L15.2085 14.0016C15.1569 13.7701 15.2319 13.5275 15.4032 13.3723L17.7884 11.2121C18.1953 10.8436 17.9798 10.1414 17.4451 10.0932L14.2966 9.80937C14.0736 9.78927 13.8792 9.64131 13.7912 9.42461L12.5579 6.38709C12.3484 5.87097 11.6534 5.87097 11.4439 6.38709L10.2106 9.42461C10.1226 9.64131 9.92826 9.78927 9.70522 9.80937L6.55494 10.0934C6.02051 10.1415 5.80483 10.8432 6.21114 11.2119L8.59266 13.3727C8.76345 13.5277 8.83836 13.7697 8.7871 14.0008L8.07416 17.2153C7.95251 17.7638 8.51661 18.1969 8.97552 17.9074L11.6895 16.1949Z" fill="#93FEBE"/>
</g>
<defs>
<filter id="filter0_bd_3269_7289" x="-14.4" y="-14.4" width="52.8" height="52.8" filterUnits="userSpaceOnUse" color-interpolation-filters="sRGB">
<feFlood flood-opacity="0" result="BackgroundImageFix"/>
<feGaussianBlur in="BackgroundImageFix" stdDeviation="7.2"/>
<feComposite in2="SourceAlpha" operator="in" result="effect1_backgroundBlur_3269_7289"/>
<feColorMatrix in="SourceAlpha" type="matrix" values="0 0 0 0 0 0 0 0 0 0 0 0 0 0 0 0 0 0 127 0" result="hardAlpha"/>
<feOffset/>
<feComposite in2="hardAlpha" operator="out"/>
<feColorMatrix type="matrix" values="0 0 0 0 1 0 0 0 0 1 0 0 0 0 1 0 0 0 0.1 0"/>
<feBlend mode="normal" in2="effect1_backgroundBlur_3269_7289" result="effect2_dropShadow_3269_7289"/>
<feBlend mode="normal" in="SourceGraphic" in2="effect2_dropShadow_3269_7289" result="shape"/>
</filter>
</defs>
</svg>
