<svg width="16" height="16" viewBox="0 0 16 16" fill="none" xmlns="http://www.w3.org/2000/svg">
<path d="M7.99999 14.2733H3.95999C1.64666 14.2733 0.679991 12.62 1.79999 10.6L3.87999 6.85333L5.83999 3.33333C7.02666 1.19333 8.97332 1.19333 10.16 3.33333L12.12 6.86L14.2 10.6067C15.32 12.6267 14.3467 14.28 12.04 14.28H7.99999V14.2733Z" fill="#93FEBE"/>
<path fill-rule="evenodd" clip-rule="evenodd" d="M8.5 6C8.5 5.72386 8.27615 5.5 8 5.5C7.72386 5.5 7.50001 5.72386 7.50001 6V9.33333C7.50001 9.60948 7.72386 9.83333 8 9.83333C8.27615 9.83333 8.5 9.60948 8.5 9.33333V6ZM7.99642 10.6667C7.62823 10.6667 7.32976 10.9651 7.32976 11.3333C7.32976 11.7015 7.62823 12 7.99642 12H8.00241C8.3706 12 8.66908 11.7015 8.66908 11.3333C8.66908 10.9651 8.3706 10.6667 8.00241 10.6667H7.99642Z" fill="#3C5A4A"/>
</svg>
